<?xml version="1.0" encoding="utf-8"?><svg viewBox="0 0 22 22" xmlns="http://www.w3.org/2000/svg" xmlns:xlink="http://www.w3.org/1999/xlink"><style>:root>svg{display:none}:root>svg:target{display:block}</style><svg fill="none" viewBox="0 0 14 9" id="arrow" xmlns="http://www.w3.org/2000/svg"><path d="M.306.806a1.046 1.046 0 0 0 0 1.478l5.904 5.91c.228.228.536.33.834.302.269 0 .538-.101.743-.306l5.908-5.907A1.044 1.044 0 1 0 12.218.806l-5.221 5.22L1.782.807a1.043 1.043 0 0 0-1.476 0Z" fill="#0C1F59"/></svg><svg viewBox="0 0 18 22" id="auth" xmlns="http://www.w3.org/2000/svg"><g clip-path="url(#ba)"><path d="M4.605 10.606C2.237 7.984 2.63 4.317 4.798 2.22c2.218-2.153 5.63-2.31 7.998-.363 1.33 1.095 2.074 2.522 2.193 4.242.118 1.721-.45 3.217-1.569 4.456.525.425 1.075.8 1.556 1.258 1.3 1.245 2.05 2.81 2.505 4.524.381 1.439.538 2.91.519 4.399-.006.438-.312.757-.75.757H.75c-.406 0-.744-.307-.75-.689-.019-2.115.25-4.18 1.093-6.144.725-1.684 1.818-3.066 3.43-3.999.025-.006.05-.031.082-.056Zm11.877 9.386c-.025-.338-.044-.65-.069-.957-.1-1.233-.337-2.435-.806-3.586-.662-1.633-1.706-2.928-3.33-3.704-.156-.075-.262-.057-.406.018-1.924 1.014-3.849 1.008-5.767-.012-.131-.069-.231-.075-.362-.013-1.35.639-2.324 1.659-3.005 2.973-.613 1.182-.931 2.459-1.094 3.773-.062.5-.087 1.001-.131 1.514 5.004-.006 9.965-.006 14.97-.006ZM13.495 6.507c0-2.465-2.03-4.499-4.498-4.499-2.468 0-4.499 2.027-4.505 4.493C4.492 8.966 6.522 11 8.991 11c2.468.006 4.504-2.027 4.504-4.493Z"/></g><defs><clipPath id="ba"><path fill="#fff" transform="translate(0 .5)" d="M0 0h18v21H0z"/></clipPath></defs></svg><svg viewBox="0 0 448 512" id="check" xmlns="http://www.w3.org/2000/svg"><!--!Font Awesome Free 6.5.1 by @fontawesome - https://fontawesome.com License - https://fontawesome.com/license/free Copyright 2023 Fonticons, Inc.--><path fill="#fff" d="M438.6 105.4c12.5 12.5 12.5 32.8 0 45.3l-256 256c-12.5 12.5-32.8 12.5-45.3 0l-128-128c-12.5-12.5-12.5-32.8 0-45.3s32.8-12.5 45.3 0L160 338.7l233.4-233.3c12.5-12.5 32.8-12.5 45.3 0z"/></svg><svg viewBox="0 0 22 14" id="eye" xmlns="http://www.w3.org/2000/svg"><g clip-path="url(#da)"><path d="M0 6.83c.398-.708.968-1.288 1.517-1.874 1.248-1.331 2.642-2.491 4.224-3.41C7.043.794 8.426.246 9.932.064c1.55-.188 3.05.038 4.498.607 1.727.671 3.239 1.692 4.622 2.905a21.54 21.54 0 0 1 2.722 2.879c.301.386.307.698 0 1.084-1.56 1.977-3.379 3.668-5.563 4.936-1.291.746-2.663 1.278-4.154 1.455-1.894.225-3.68-.161-5.38-.994C4.315 11.782 2.383 10.101.699 8.11.447 7.813.237 7.48.005 7.163 0 7.056 0 6.943 0 6.831Zm1.646.183c.42.451.807.897 1.227 1.321 1.42 1.44 2.992 2.675 4.864 3.485.915.398 1.872.66 2.873.715 1.582.08 3.034-.355 4.417-1.074 1.517-.79 2.836-1.848 4.035-3.056.441-.446.856-.918 1.28-1.38-.047-.06-.075-.091-.101-.124a20.481 20.481 0 0 0-2.68-2.653c-1.081-.88-2.238-1.627-3.535-2.158-2.248-.924-4.454-.79-6.633.247-1.19.564-2.266 1.305-3.26 2.153-.894.757-1.706 1.6-2.487 2.524Z"/><path d="M11.003 2.658c2.405.011 4.358 1.96 4.347 4.35-.01 2.406-1.964 4.35-4.358 4.34-2.41-.012-4.353-1.956-4.347-4.35.01-2.407 1.963-4.35 4.358-4.34Zm0 1.46a2.872 2.872 0 0 0-2.89 2.88c0 1.6 1.281 2.883 2.884 2.883a2.872 2.872 0 0 0 2.89-2.878c0-1.6-1.281-2.884-2.884-2.884Z"/></g><defs><clipPath id="da"><path fill="#fff" d="M0 0h22v14H0z"/></clipPath></defs></svg><svg fill="none" viewBox="0 0 21 22" id="lang" xmlns="http://www.w3.org/2000/svg"><g clip-path="url(#ea)"><path d="M21 11.018c-.006 5.795-4.72 10.494-10.528 10.488C4.682 21.494-.006 16.776 0 10.963.006 5.17 4.725.493 10.552.5 16.312.506 21.006 5.23 21 11.018Zm-6.578.591H6.621a18.36 18.36 0 0 0 .387 3.37c1.188-.03 2.344-.085 3.501-.08 1.157 0 2.314.056 3.532.087.13-1.107.252-2.227.381-3.377Zm-7.408-4.62a19.271 19.271 0 0 0-.387 3.402h7.746a18.472 18.472 0 0 0-.393-3.402 53.708 53.708 0 0 1-6.966 0Zm.29 9.196c.264.99.652 1.883 1.2 2.695.215.313.46.615.738.873.332.314.726.541 1.206.554.59.012 1.04-.271 1.44-.665.793-.787 1.242-1.771 1.605-2.805.074-.203.136-.418.21-.652a52.87 52.87 0 0 0-6.4 0Zm6.374-10.37c-.142-.745-.634-1.907-1.194-2.707-.258-.363-.553-.72-.904-.996-.77-.61-1.557-.579-2.289.08-1.077.96-1.57 2.25-1.994 3.616 2.148.142 4.252.136 6.381.007ZM5.384 10.39c.129-1.169.252-2.325.381-3.488-.012 0-.049-.006-.086-.012a565.251 565.251 0 0 0-3.193-.394c-.062-.006-.172.062-.197.123-.222.486-.45.972-.634 1.477a7.62 7.62 0 0 0-.437 2.294h4.166ZM1.23 11.603c.012 1.126.516 2.91 1.076 3.801.037.056.148.092.216.086.67-.08 1.335-.172 2.006-.252.424-.055.849-.098 1.23-.141a857.32 857.32 0 0 1-.375-3.494H1.23Zm14.385-1.212h4.166a9.3 9.3 0 0 0-1.07-3.783c-.069-.123-.142-.123-.26-.104-.658.092-1.316.178-1.98.258-.425.055-.85.098-1.237.141.129 1.17.252 2.32.381 3.488Zm4.166 1.224h-4.166c-.129 1.169-.252 2.325-.381 3.482-.006 0 .006.006.024.006 1.09.135 2.172.27 3.261.4.056.006.154-.056.185-.111a8.977 8.977 0 0 0 1.077-3.777Zm-1.895 5.026c-.019-.006-.037-.025-.056-.025-.929-.105-1.858-.21-2.787-.32-.148-.018-.154.074-.185.178a10.3 10.3 0 0 1-.91 2.301c-.203.37-.431.732-.646 1.101 1.513-.357 3.79-1.962 4.584-3.235ZM3.058 5.402c.978.105 1.895.203 2.812.308.172.018.234-.037.283-.203A10.547 10.547 0 0 1 7.58 2.345c.037-.055.068-.117.136-.227-1.908.615-3.415 1.691-4.658 3.284ZM13.241 2.1c.806 1.077 1.268 2.245 1.618 3.463.043.148.117.154.234.142.665-.074 1.323-.142 1.988-.215.27-.031.535-.074.836-.117-1.224-1.575-2.75-2.645-4.676-3.273ZM3.071 16.61c1.236 1.582 2.744 2.658 4.608 3.261-.006-.05 0-.068-.006-.08-.732-1.021-1.194-2.165-1.539-3.365-.036-.129-.098-.147-.215-.141-.344.037-.689.061-1.027.098-.591.074-1.182.154-1.822.228Z" fill="#DEDEDE"/></g><defs><clipPath id="ea"><path fill="#fff" transform="translate(0 .5)" d="M0 0h21v21H0z"/></clipPath></defs></svg><svg viewBox="0 0 11 8" id="pagination" xmlns="http://www.w3.org/2000/svg"><path d="M.646 3.646a.5.5 0 0 0 0 .708l3.182 3.182a.5.5 0 1 0 .708-.708L1.707 4l2.829-2.828a.5.5 0 1 0-.708-.708L.646 3.646ZM11 3.5H1v1h10v-1Z"/></svg><svg viewBox="0 0 19 20" id="search" xmlns="http://www.w3.org/2000/svg"><g clip-path="url(#ga)"><path d="M8.235.5c.299.051.598.087.89.146 2.319.488 4.062 1.764 5.222 3.82.722 1.276 1.02 2.669.926 4.134A7.512 7.512 0 0 1 13.8 12.67l-.11.153c.051.05.095.102.146.145l4.85 4.849c.453.452.416 1.123-.073 1.487-.386.284-.89.24-1.247-.11-.445-.437-.882-.881-1.327-1.326l-3.567-3.565c-.036-.037-.073-.088-.11-.139-.13.095-.247.175-.364.255-1.437.992-3.034 1.437-4.777 1.35C3.756 15.591.802 13.017.153 9.62c-.058-.3-.102-.598-.146-.89V7.543a.971.971 0 0 0 .037-.139C.13 6.931.175 6.45.32 5.997 1.247 3.11 3.195 1.317 6.163.646c.292-.066.59-.102.89-.146h1.182Zm5.156 7.64c0-3.163-2.582-5.744-5.747-5.737-3.166.007-5.74 2.58-5.748 5.738-.007 3.142 2.59 5.73 5.748 5.738 3.158.007 5.747-2.574 5.747-5.738Z"/></g><defs><clipPath id="ga"><path fill="#fff" transform="translate(0 .5)" d="M0 0h19v19H0z"/></clipPath></defs></svg><svg fill="none" viewBox="0 0 18 14" id="star" xmlns="http://www.w3.org/2000/svg"><path d="m9 .929 2.277 3.564.118.184.215.039 4.419.786-3.01 2.889-.182.175.033.25.52 3.967-4.203-1.697L9 11.011l-.187.075-4.202 1.697.52-3.967.032-.25-.182-.175-3.01-2.889 4.419-.786.215-.039.118-.184L9 .929Z" stroke="#F3AB50"/></svg><svg fill="none" viewBox="0 0 18 14" id="star_fill" xmlns="http://www.w3.org/2000/svg"><path d="m9 0 2.698 4.223 5.386.96-3.719 3.569.631 4.816L9 11.55l-4.996 2.018.63-4.816-3.718-3.57 5.386-.959L9 0Z" fill="#F3AB50"/></svg></svg>