<svg width="115" height="125" viewBox="0 0 115 125" fill="none" xmlns="http://www.w3.org/2000/svg">
<path d="M18.4141 52.5083C19.7629 57.05 21.1703 57.9291 21.3169 61.0643C21.5515 65.4302 23.2522 67.6278 27.4452 68.8878C27.5332 68.9171 27.5918 69.005 27.6504 69.0636C27.7677 69.9427 27.8264 70.8217 28.0023 71.6714C28.7647 75.8029 29.703 79.9052 33.0163 82.8939C33.808 83.5971 33.896 84.3004 33.7787 85.2087C33.4855 87.3184 33.1923 89.4574 32.987 91.5671C32.8697 92.5927 32.5472 93.1494 31.4623 93.4717C23.9266 95.7279 16.3909 98.0428 8.8845 100.416C3.66523 102.057 0.381188 106.335 0.146614 111.785C0.0293268 114.452 0.0586486 117.147 0.117292 119.814C0.205257 122.978 2.25778 124.941 5.45386 124.941C40.1708 124.941 74.9171 124.941 109.634 124.941C112.889 124.941 114.971 122.978 115.029 119.726C115.088 117.147 115.117 114.569 115 111.99C114.765 106.335 111.569 102.086 106.174 100.387C98.6678 98.0135 91.1321 95.6986 83.5964 93.4424C82.5994 93.1494 82.2183 92.6513 82.1303 91.6257C81.925 89.4574 81.6025 87.2891 81.3093 85.1208C81.192 84.2418 81.3973 83.6557 82.013 82.9232C83.3032 81.3116 84.6813 79.6414 85.4143 77.7368C86.4699 74.9532 86.9977 71.9645 87.7894 68.8878C92.129 67.3934 93.5951 65.4009 93.8004 60.4197C93.8004 60.1267 93.8297 59.8337 93.859 59.5406C93.9176 58.6323 94.1522 58.0463 94.7973 57.7533C94.9732 57.1379 96.1754 53.5924 96.4686 53.0357L96.6152 52.479C97.7588 49.6954 97.9054 47.1461 96.8791 44.5676C95.8236 41.9012 93.859 40.3775 91.1028 39.7622C91.2494 39.1468 91.3667 38.678 91.5133 38.2092C93.126 32.3782 93.8883 26.4593 92.5395 20.4818C90.399 10.9295 84.0655 5.24505 75.0051 2.52001C63.9215 -0.79105 52.7499 -0.703145 41.6076 1.99259C35.7726 3.39906 30.5533 6.12409 26.7415 10.9588C21.874 17.1414 20.9651 24.291 21.9913 31.8215C22.3432 34.4879 23.0469 37.125 23.604 39.8794C20.8771 40.4654 19.1178 42.1649 18.0915 44.7434C17.0946 47.3219 17.3585 49.8712 18.4141 52.5083ZM39.9949 7.82358C51.4011 4.07299 63.0125 4.07299 74.4773 7.73567C84.2121 10.8709 88.5811 18.3428 88.0533 29.0085C88.024 29.8583 87.8774 30.708 87.7894 31.7922C86.5872 29.2136 85.5903 26.8695 84.4174 24.6426C83.0686 22.1227 81.2506 19.9544 78.8169 18.4014C76.6471 17.0242 73.9202 17.3172 72.3368 19.339C69.3167 23.1775 65.1237 24.5254 60.5495 24.9356C56.8549 25.2579 53.1604 25.1407 49.5538 23.9687C46.9442 23.1189 44.7157 21.7418 42.9564 19.6028C41.0505 17.2879 38.4115 16.9656 35.9192 18.6358C32.2246 21.185 30.2014 24.9356 28.5594 28.9206C28.1196 29.9755 27.7384 31.0596 27.2693 32.3196C25.2754 22.1813 28.4128 11.6035 39.9949 7.82358ZM32.6351 67.3641C32.5765 64.9028 32.0487 64.3461 29.5857 64.0531C27.1226 63.7894 26.5655 63.1447 26.4482 60.5955C26.4482 60.3025 26.4189 59.9802 26.3896 59.6871C24.8355 56.8742 24.3078 54.7938 23.7213 52.0981C23.5161 51.5999 23.5161 51.3948 23.4281 51.0139C23.1349 49.754 22.7244 48.4647 22.7244 47.2047C22.7244 45.4173 24.2784 44.4504 26.0084 44.9192C28.9699 45.7397 29.8789 45.0364 30.3187 41.9305C31.0224 37.1543 32.254 32.4954 34.4531 28.1588C35.538 26.0198 36.7988 23.998 38.9393 22.6208C46.0352 32.4368 68.8769 32.7298 76.3832 22.3864C77.6441 23.998 79.0222 25.3751 79.9605 27.0453C82.7461 31.968 84.2708 37.3301 84.7693 42.956C84.9159 44.7141 86.4113 45.7104 88.2292 45.2122C91.4253 44.3039 93.0087 45.769 92.3343 49.0507C92.2756 49.3437 92.1877 49.6074 92.0997 49.9005C91.8065 50.8381 91.6306 51.4241 91.3667 51.8051C90.8389 53.8269 90.9855 53.5631 89.2848 58.31C89.1968 59.6285 88.7277 60.8299 88.4931 62.0606C88.3758 62.6173 87.7894 63.2326 87.2616 63.5256C86.6459 63.8773 85.8835 63.9359 85.1504 64.0238C83.2445 64.2582 82.6288 65.0493 82.3942 66.9246C82.0716 69.6496 81.5439 72.3747 81.0161 75.0704C80.5762 77.2973 79.2274 78.9675 77.4388 80.2275C75.269 81.7804 72.9526 83.1283 70.7534 84.652C69.4046 85.5896 68.0265 86.5566 66.9123 87.6993C64.7425 89.9555 62.2501 91.5671 59.2007 92.1239C55.3595 92.8271 51.9875 91.3913 49.4072 88.7249C47.1494 86.4101 44.6571 84.5348 41.8129 83.1576C35.1275 79.9638 32.8111 74.3086 32.6351 67.3641ZM76.9403 95.9037C75.5622 98.9218 73.2165 101.09 70.255 102.35C61.8983 105.896 53.4243 105.925 45.0089 102.467C41.9595 101.207 39.5551 99.0683 38.1476 96.021C37.8251 95.3177 37.7371 94.4387 37.8251 93.6768C38.001 91.5964 38.2942 89.516 38.6168 86.9961C40.6693 88.4612 42.7805 89.516 44.3345 91.1276C47.7652 94.6438 51.7823 97.1051 56.679 97.3981C62.0156 97.7204 66.4138 95.2591 70.255 91.6257C72.0436 89.9262 74.1841 88.5784 76.4419 86.8496C76.8231 89.6625 77.1456 91.8601 77.3802 94.0871C77.3802 94.7024 77.2042 95.3763 76.9403 95.9037ZM109.927 119.814H5.13132C5.13132 116.971 4.95539 114.159 5.18996 111.404C5.42453 108.591 7.03723 106.364 9.73483 105.485C17.5637 102.936 25.4806 100.592 33.4562 98.1307C35.9778 103.083 39.9949 106.218 45.0969 108.035C49.935 109.763 54.9783 110.349 60.051 109.881C63.0711 109.617 66.1499 109.089 69.0528 108.269C74.5653 106.687 78.8463 103.376 81.5732 98.1307C87.0857 99.8301 92.5688 101.5 98.0227 103.171C100.105 103.815 102.216 104.46 104.298 105.104C107.963 106.247 109.927 108.884 109.927 112.693C109.927 115.038 109.927 117.352 109.927 119.814Z" fill="#0C1F59"/>
</svg>
